# xmcd
#
# Track frame offsets:
# 150
# 17790
# 34334
# 48861
# 56515
# 72485
# 78470
# 88061
# 103011
# 115026
# 133797
# 154625
#
# Disc length: 2353 seconds
#
#
# Revision: 0
# Processed by: cddbd v1.5.2PL0 Copyright (c) Steve Scherf et al.
# Submitted via: FreeRIP 2.942 
#
DISCID=9c092f0c
DTITLE=Anca Parghel - Colind pentru Romania
DYEAR=2008
DGENRE=Colind
TTITLE0=Anca Parghel - Colind pentru Romania
TTITLE1=Anca Parghel - Feliz Navidad
TTITLE2=Anca Parghel - Florile dalbe
TTITLE3=Anca Parghel - Steaua sus rasare
TTITLE4=Anca Parghel - Silent night
TTITLE5=Anca Parghel - Astazi s-a nascut Hristos
TTITLE6=Anca Parghel - White Christmas
TTITLE7=Anca Parghel - Jingle Bells
TTITLE8=Anca Parghel - O, Tannenbaum
TTITLE9=Anca Parghel - Amazing Grace
TTITLE10=Anca Parghel - Ave Maria
TTITLE11=Anca Parghel - White Christmas feat. Tudor Ionescu
EXTD=
EXTT0=
EXTT1=
EXTT2=
EXTT3=
EXTT4=
EXTT5=
EXTT6=
EXTT7=
EXTT8=
EXTT9=
EXTT10=
EXTT11=
PLAYORDER=
